<svg xmlns="http://www.w3.org/2000/svg" height="800px" version="1.1" viewBox="0 0 512 512" width="800px">
<path d="M 221.12 187.99 C 228.34 180.99 237.90 176.19 248.00 175.47 C 255.35 174.81 262.76 175.47 270.00 176.81 C 264.63 184.73 258.20 191.88 252.50 199.56 C 249.58 203.54 245.99 207.08 243.58 211.40 C 242.68 222.81 244.21 234.35 242.84 245.74 C 239.23 242.89 234.58 241.10 229.94 241.98 C 224.66 242.51 220.19 246.00 217.34 250.34 C 216.79 237.57 217.82 224.73 216.87 212.00 C 210.29 210.83 203.45 211.98 196.76 211.53 C 204.60 203.40 212.98 195.81 221.12 187.99 Z" fill="#f76868" opacity="1.00" stroke="#f76868" stroke-width="0.25"/>
<path d="M 104.63 230.91 C 107.25 230.78 109.87 230.75 112.49 230.72 C 112.46 245.20 112.58 259.69 112.36 274.17 C 109.80 274.16 107.24 274.17 104.69 274.16 C 104.70 259.75 104.76 245.33 104.63 230.91 Z" fill="#fafafa" opacity="1.00" stroke="#fafafa" stroke-width="0.25"/>
<path d="M 391.80 242.55 C 391.77 239.77 391.76 236.99 391.78 234.21 C 394.33 234.20 396.89 234.20 399.45 234.22 C 399.36 237.02 399.34 239.82 399.35 242.63 C 402.01 242.60 404.67 242.58 407.33 242.59 C 407.23 244.86 407.02 247.13 406.67 249.38 C 404.24 249.29 401.82 249.25 399.40 249.22 C 399.45 255.28 399.01 261.36 399.75 267.39 C 402.23 267.78 404.74 267.77 407.24 267.45 C 407.30 269.70 407.39 271.94 407.46 274.19 C 403.35 274.66 398.63 275.64 395.04 272.94 C 392.37 271.27 391.76 267.90 391.71 264.99 C 391.61 259.72 391.72 254.44 391.76 249.16 C 390.07 249.17 388.38 249.19 386.71 249.21 C 386.67 247.01 386.65 244.82 386.64 242.63 C 388.35 242.60 390.08 242.57 391.80 242.55 Z" fill="#fafafa" opacity="1.00" stroke="#fafafa" stroke-width="0.25"/>
<path d="M 201.41 247.95 C 203.03 243.60 207.56 242.05 211.77 241.49 C 212.15 244.08 212.25 246.70 212.30 249.32 C 208.11 249.07 203.33 250.59 202.00 255.01 C 200.33 261.29 201.93 267.91 200.80 274.29 C 198.37 274.21 195.94 274.18 193.52 274.15 C 193.53 263.62 193.51 253.09 193.48 242.56 C 195.88 242.57 198.29 242.57 200.69 242.56 C 200.93 244.35 201.18 246.15 201.41 247.95 Z" fill="#fafafa" opacity="1.00" stroke="#fafafa" stroke-width="0.25"/>
<path d="M 129.24 246.86 C 133.07 241.31 141.49 240.10 146.85 244.06 C 149.69 246.19 151.39 249.63 151.49 253.16 C 151.74 260.14 151.42 267.13 151.55 274.12 C 149.06 274.17 146.57 274.18 144.08 274.21 C 143.63 267.80 144.10 261.37 143.80 254.95 C 143.85 251.40 140.56 248.16 136.97 248.49 C 133.10 248.21 129.66 251.57 129.37 255.33 C 128.88 261.63 129.70 267.99 128.79 274.27 C 126.38 274.21 123.97 274.18 121.56 274.17 C 121.45 263.62 121.49 253.07 121.48 242.52 C 124.01 242.54 126.55 242.56 129.09 242.60 C 129.13 243.67 129.20 245.80 129.24 246.86 Z" fill="#fafafa" opacity="1.00" stroke="#fafafa" stroke-width="0.25"/>
<path d="M 158.25 254.82 C 159.76 246.14 169.08 240.26 177.60 242.03 C 181.64 242.56 185.13 244.85 187.88 247.77 C 186.29 249.18 184.72 250.60 183.24 252.12 C 179.68 250.51 176.09 247.46 171.95 249.22 C 163.93 251.28 163.23 264.08 170.83 267.22 C 175.10 269.63 179.55 267.00 183.27 264.84 C 184.81 266.31 186.42 267.70 188.03 269.09 C 184.40 272.93 179.33 275.36 173.96 274.89 C 163.90 275.22 155.50 264.52 158.25 254.82 Z" fill="#fafafa" opacity="1.00" stroke="#fafafa" stroke-width="0.25"/>
<path d="M 217.34 250.34 C 220.19 246.00 224.66 242.51 229.94 241.98 C 234.58 241.10 239.23 242.89 242.84 245.74 C 247.26 249.55 248.07 255.69 247.87 261.19 C 246.18 261.19 244.49 261.20 242.80 261.20 C 236.11 261.29 229.42 261.12 222.74 261.42 C 224.00 263.60 224.88 266.36 227.33 267.53 C 231.86 270.08 237.66 268.79 241.17 265.11 C 241.53 265.36 242.25 265.87 242.61 266.13 C 243.81 266.98 244.93 267.94 246.06 268.89 C 245.08 269.79 244.18 270.76 243.14 271.59 C 238.42 275.01 232.20 275.67 226.66 274.19 C 223.32 273.18 220.73 270.74 218.21 268.46 L 217.75 268.05 C 215.36 262.47 214.49 255.93 217.34 250.34 Z" fill="#fafafa" opacity="1.00" stroke="#fafafa" stroke-width="0.25"/>
<path d="M 261.78 247.79 C 265.82 239.72 279.04 239.68 282.90 247.95 C 286.55 241.65 295.51 239.88 301.53 243.68 C 304.94 245.87 306.64 250.03 306.59 253.99 C 306.66 260.67 306.60 267.36 306.58 274.05 C 304.17 274.11 301.76 274.18 299.35 274.30 C 298.06 267.22 299.63 259.95 298.46 252.86 C 297.33 247.81 289.70 246.97 286.81 250.84 C 285.36 252.54 284.45 254.74 284.54 257.01 C 284.45 262.76 284.61 268.51 284.44 274.27 C 281.82 274.19 279.21 274.06 276.60 273.82 C 276.71 267.54 276.82 261.25 276.61 254.98 C 276.71 251.11 272.89 247.66 269.02 248.57 C 264.94 248.64 262.44 252.63 262.31 256.37 C 262.08 262.13 262.12 267.92 262.32 273.69 C 259.76 274.16 257.15 274.23 254.55 274.27 C 254.39 263.70 254.53 253.13 254.48 242.56 C 257.04 242.57 259.61 242.58 262.17 242.61 C 262.04 244.33 261.93 246.06 261.78 247.79 Z" fill="#fafafa" opacity="1.00" stroke="#fafafa" stroke-width="0.25"/>
<path d="M 313.65 253.17 C 316.60 243.43 329.14 238.60 337.82 244.00 C 343.83 247.42 346.00 254.71 345.40 261.26 C 337.19 261.18 328.97 261.20 320.76 261.22 C 321.28 266.57 327.17 269.70 332.13 268.73 C 334.94 268.65 337.08 266.66 339.16 265.01 C 340.52 266.28 342.16 267.35 343.10 269.00 C 336.78 277.26 322.49 276.91 316.33 268.61 C 312.68 264.39 312.61 258.36 313.65 253.17 Z" fill="#fafafa" opacity="1.00" stroke="#fafafa" stroke-width="0.25"/>
<path d="M 359.55 247.79 C 362.85 240.43 374.26 239.71 379.08 245.87 C 381.65 248.55 381.91 252.46 381.88 255.98 C 381.82 262.06 382.01 268.15 381.66 274.22 C 379.26 274.18 376.87 274.18 374.48 274.21 C 374.22 267.79 374.57 261.37 374.30 254.96 C 374.24 251.65 371.53 248.44 368.08 248.52 C 363.77 247.98 359.76 251.75 359.66 256.00 C 359.37 262.03 359.60 268.08 359.52 274.11 C 357.03 274.17 354.54 274.20 352.06 274.22 C 351.49 263.68 352.28 253.13 352.12 242.58 C 354.56 242.58 357.00 242.57 359.44 242.56 C 359.48 244.30 359.53 246.05 359.55 247.79 Z" fill="#fafafa" opacity="1.00" stroke="#fafafa" stroke-width="0.25"/>
<path d="M 222.99 255.67 C 223.96 251.83 226.64 248.19 230.89 247.87 C 235.85 246.78 240.07 250.80 240.72 255.53 C 234.81 255.74 228.90 255.66 222.99 255.67 Z" fill="#f76868" opacity="1.00" stroke="#f76868" stroke-width="0.25"/>
<path d="M 320.20 255.47 C 321.71 250.56 326.69 246.24 332.05 248.16 C 335.69 248.86 337.30 252.45 338.17 255.66 C 332.18 255.58 326.18 255.84 320.20 255.47 Z" opacity="1.00" stroke-width="0.25"/>
<path d="M 222.74 261.42 C 229.42 261.12 236.11 261.29 242.80 261.20 C 242.73 262.84 242.67 264.48 242.61 266.13 C 242.25 265.87 241.53 265.36 241.17 265.11 C 237.66 268.79 231.86 270.08 227.33 267.53 C 224.88 266.36 224.00 263.60 222.74 261.42 Z" fill="#f76868" opacity="1.00" stroke="#f76868" stroke-width="0.25"/>
<path d="M 218.21 268.46 C 220.73 270.74 223.32 273.18 226.66 274.19 C 232.20 275.67 238.42 275.01 243.14 271.59 C 243.65 277.75 243.16 283.93 243.39 290.11 C 243.45 297.21 249.81 303.59 256.95 303.50 C 270.53 303.67 284.11 303.29 297.69 303.63 C 290.67 310.28 284.10 317.43 276.55 323.49 C 268.34 329.39 257.51 331.30 247.67 329.28 C 234.76 327.00 223.43 317.32 219.28 304.86 C 216.08 296.92 217.53 288.24 217.20 279.92 C 217.26 276.09 216.44 272.04 218.21 268.46 Z" fill="#f76868" opacity="1.00" stroke="#f76868" stroke-width="0.25"/>
</svg>
